# xmcd CD database file
#
# Track frame offsets:
#	150
#	14954
#	30707
#	51602
#	76123
#	93742
#	117902
#	139816
#	152918
#	172781
#	194287
#	221435
#
# Disc length: 3212 seconds
#
# Revision: 0
# Processed by: cddbd v1.5.2PL0 Copyright (c) Steve Scherf et al.
# Submitted via: CDex 1.70beta2
#
DISCID=a70c8a0c
DTITLE=Eric Legnini - Big Boogaloo
DYEAR=2006
DGENRE=Jazz
TTITLE0=Funky Dilla
TTITLE1=Nightfall
TTITLE2=Trashevere
TTITLE3=Big Boogaloo
TTITLE4=Reflection
TTITLE5=Where Is The Love
TTITLE6=Smoke Gets In Your Eyes
TTITLE7=Honky Cookie
TTITLE8=Goin' Out Of My Head
TTITLE9=Mojito Forever
TTITLE10=Soul Brother
TTITLE11=The Preatcher
EXTD=YEAR: 2006
EXTT0=
EXTT1=
EXTT2=
EXTT3=
EXTT4=
EXTT5=
EXTT6=
EXTT7=
EXTT8=
EXTT9=
EXTT10=
EXTT11=
PLAYORDER=
